<svg width="102" height="137" viewBox="0 0 102 137" fill="none" xmlns="http://www.w3.org/2000/svg">
<mask id="path-1-inside-1_4035_16032" fill="white">
<path d="M17 68C17 65.2386 19.2386 63 22 63H79C81.7614 63 84 65.2386 84 68V122C84 130.284 77.2843 137 69 137H32C23.7157 137 17 130.284 17 122V68Z"/>
</mask>
<path d="M17 68C17 65.2386 19.2386 63 22 63H79C81.7614 63 84 65.2386 84 68V122C84 130.284 77.2843 137 69 137H32C23.7157 137 17 130.284 17 122V68Z" fill="white" stroke="#FF7F7F" stroke-width="14" mask="url(#path-1-inside-1_4035_16032)"/>
<rect x="0.254395" y="52.4956" width="79.6364" height="9.04959" rx="4.5248" transform="rotate(-40.6555 0.254395 52.4956)" fill="#FF7F7F"/>
<mask id="path-3-inside-2_4035_16032" fill="white">
<path d="M13.0617 33.1466C10.7823 30.4924 11.0862 26.493 13.7403 24.2137L28.8442 11.2427C31.4984 8.96339 35.4977 9.26723 37.7771 11.9214C40.0564 14.5755 39.7526 18.5749 37.0984 20.8543L21.9946 33.8252C19.3404 36.1046 15.341 35.8007 13.0617 33.1466Z"/>
</mask>
<path d="M6.55532 34.7797C3.19652 30.8686 3.64425 24.9752 7.55537 21.6164L27.2111 4.73636C31.1222 1.37756 37.0156 1.82529 40.3744 5.7364L33.2253 15.8304C33.1048 15.6902 32.8935 15.6741 32.7533 15.7946L17.6494 28.7655C17.5092 28.886 17.4931 29.0973 17.6135 29.2375L6.55532 34.7797ZM41.9042 16.7272L17.1888 37.9524L41.9042 16.7272ZM19.7187 35.7798C15.8076 39.1386 9.91413 38.6908 6.55532 34.7797C3.19652 30.8686 3.64425 24.9752 7.55537 21.6164L17.6494 28.7655C17.5092 28.886 17.4931 29.0973 17.6135 29.2375C19.8929 31.8917 21.8544 33.9457 21.9946 33.8252L19.7187 35.7798ZM27.2111 4.73636C31.1222 1.37756 37.0156 1.82529 40.3744 5.7364C43.7332 9.64752 43.2855 15.5409 39.3744 18.8998L37.0984 20.8543C37.2387 20.7338 35.5046 18.4846 33.2253 15.8304C33.1048 15.6902 32.8935 15.6741 32.7533 15.7946L27.2111 4.73636Z" fill="#FF7F7F" mask="url(#path-3-inside-2_4035_16032)"/>
<rect x="41" y="81" width="6" height="36" rx="3" fill="#FF7F7F"/>
<rect x="56" y="81" width="6" height="36" rx="3" fill="#FF7F7F"/>
<g clip-path="url(#clip0_4035_16032)">
<path d="M61.1575 36.2083C62.9383 32.2042 66.0682 28.754 70.3654 26.7348C77.9057 23.1919 86.5872 25.1109 92.0175 30.8538L88.7848 33.9168C86.7117 31.7236 83.9993 30.2405 81.034 29.6788C78.0687 29.1172 75.0018 29.5056 72.2702 30.7888C69.1081 32.2746 66.7703 34.7983 65.4001 37.7385L74.0284 40.8504L59.4342 47.7078L52.5768 33.1135L61.1575 36.2083Z" fill="#FF7F7F"/>
</g>
<defs>
<clipPath id="clip0_4035_16032">
<rect width="43" height="43" fill="white" transform="matrix(-0.905069 0.425264 0.425264 0.905069 82.918 5)"/>
</clipPath>
</defs>
</svg>
